<svg id="Layer_1" data-name="Layer 1" xmlns="http://www.w3.org/2000/svg" xmlns:xlink="http://www.w3.org/1999/xlink" viewBox="0 0 22 24"><defs><style>.cls-1{fill:url(#New_Gradient_Swatch);}</style><linearGradient id="New_Gradient_Swatch" x1="-637.48" y1="380.01" x2="-636.48" y2="379.01" gradientTransform="matrix(20, 0, 0, -22, 12750.49, 8363.38)" gradientUnits="userSpaceOnUse"><stop offset="0" stop-color="#ebb700"/><stop offset="1" stop-color="#ff9f19"/></linearGradient></defs><title>Artboard 1</title><path id="Fill_1" data-name="Fill 1" class="cls-1" d="M19,23H3a2.17,2.17,0,0,1-1.64-.7A1.53,1.53,0,0,1,1,21.07l1.8-14a1.94,1.94,0,0,1,2-1.54h.69A4.36,4.36,0,0,1,7.17,2.33,5.93,5.93,0,0,1,11,1a5.93,5.93,0,0,1,3.83,1.33,4.36,4.36,0,0,1,1.64,3.23h.43a2,2,0,0,1,2,1.51l2.06,14a1.52,1.52,0,0,1-.37,1.24A2.19,2.19,0,0,1,19,23ZM11,2.19a4.45,4.45,0,0,0-2.84,1A3.25,3.25,0,0,0,6.93,5.56h8.14a3.27,3.27,0,0,0-1.23-2.39A4.49,4.49,0,0,0,11,2.19Z"/></svg>